<svg width="64" height="46" viewBox="0 0 64 46" fill="none" xmlns="http://www.w3.org/2000/svg">
<path d="M2.18751 24.0441C1.9375 23.3705 1.9375 22.6295 2.18751 21.9559C4.62248 16.051 8.75572 11.0021 14.0632 7.44933C19.3707 3.89659 25.6135 2 32 2C38.3865 2 44.6293 3.89659 49.9368 7.44933C55.2443 11.0021 59.3775 16.051 61.8125 21.9559C62.0625 22.6295 62.0625 23.3705 61.8125 24.0441C59.3775 29.949 55.2443 34.9979 49.9368 38.5507C44.6293 42.1034 38.3865 44 32 44C25.6135 44 19.3707 42.1034 14.0632 38.5507C8.75572 34.9979 4.62248 29.949 2.18751 24.0441Z" stroke="white" stroke-width="4" stroke-linecap="round" stroke-linejoin="round"/>
<path d="M32 32.0008C36.9703 32.0008 40.9995 27.971 40.9995 23C40.9995 18.029 36.9703 13.9992 32 13.9992C27.0297 13.9992 23.0005 18.029 23.0005 23C23.0005 27.971 27.0297 32.0008 32 32.0008Z" stroke="white" stroke-width="4" stroke-linecap="round" stroke-linejoin="round"/>
</svg>
