<svg width="76" height="60" viewBox="0 0 76 60" fill="none" xmlns="http://www.w3.org/2000/svg">
<path d="M7.6809 53.9698C9.8282 54.672 11.9853 55.2965 14.1489 55.8426L16.5744 51.6032L19 56.936C31.7716 59.475 44.6754 59.3765 57 56.9285L59.4255 51.6035L61.8509 55.8362C64.0299 55.2871 66.1874 54.6649 68.319 53.969L71.553 37.2017L4.44674 37.2017L7.6809 53.9698Z" fill="#FFAD7A"/>
<path d="M19 3.06778L16.5745 8.40045L14.1491 4.16102C11.9853 4.70727 9.8282 5.33166 7.68105 6.0339L4.44704 13.2007L71.5534 13.2007L68.3194 6.03478C66.1878 5.339 64.0303 4.71667 61.8514 4.16762L59.4259 8.4003L57 3.07527C44.6754 0.627203 31.7716 0.528794 19 3.06778Z" fill="#FFA68B"/>
<path d="M4.44674 11.9528L4.44674 22.801L71.5531 22.801V11.9534C50.5937 4.29262 26.8758 3.74476 4.44674 11.9528Z" fill="#FFAD7A"/>
<path d="M4.44674 37.5771C25.8966 39.9739 49.613 40.5464 71.5531 37.6523V22.4257C50.1031 20.0286 26.3867 19.4562 4.44674 22.3502L4.44674 37.5771Z" fill="#FFA68B"/>
<path d="M1.21273 8.40031L1.21273 13.2005L4.44674 14.8007L7.68075 10.8341L7.68105 6.0339C5.51386 6.74275 3.35617 7.52974 1.21273 8.40031Z" fill="#D7E1E1"/>
<path d="M14.1491 4.16102L14.1489 8.96125L16.5744 12.1613L18.9999 7.86801L19 3.06778C17.3805 3.38975 15.763 3.75357 14.1491 4.16102Z" fill="#D7E1E1"/>
<path d="M14.1489 55.8426C15.7629 56.2501 17.3804 56.613 19 56.935L18.9999 7.86801C17.3802 8.18997 15.7629 8.5538 14.1489 8.96125L14.1489 55.8426Z" fill="#FFF5E3"/>
<path d="M68.3191 10.8349L71.5531 14.8007L74.7871 13.2005V8.4003C72.661 7.53679 70.5038 6.74774 68.3194 6.03478L68.3191 10.8349Z" fill="#D7E1E1"/>
<path d="M74.7873 51.6022L74.7871 13.2005C72.661 12.337 70.5035 11.5478 68.3191 10.8349L68.3193 53.9679C70.5035 53.2549 72.6612 52.4657 74.7873 51.6022Z" fill="#FFF5E3"/>
<path d="M57 7.8755L59.4255 12.168L61.8509 8.96785L61.8514 4.16762C60.2456 3.76297 58.6278 3.3987 57 3.07527L57 7.8755Z" fill="#D7E1E1"/>
<path d="M57 56.9272C58.6278 56.6038 60.2451 56.2395 61.8511 55.8349L61.8509 8.96785C60.2451 8.56319 58.6278 8.19893 57 7.8755V56.9272Z" fill="#FFF5E3"/>
<path d="M1.21274 51.6022C3.35617 52.4727 5.51356 53.2599 7.6809 53.9687L7.68075 10.8341C5.51341 11.5428 3.35617 12.33 1.21273 13.2005L1.21274 51.6022Z" fill="#FFF5E3"/>
<path d="M0.752281 7.29018C0.297172 7.4751 -2.14961e-08 7.91369 0 8.40031L1.90842e-06 51.6022C1.92993e-06 52.0889 0.297174 52.5275 0.752283 52.7123C6.57222 55.0762 12.6313 56.8928 18.761 58.1114C19.4179 58.242 20.0737 57.6613 20.2058 57.0115L20.2127 40.1654C32.5788 40.9543 44.5326 41.0141 55.7873 40.3437V55.9364C45.3389 57.8993 34.6015 58.1353 24.0289 56.5848C23.3663 56.4877 22.7497 56.9404 22.6514 57.596C22.552 58.2528 23.0108 58.8619 23.6733 58.959C41.0713 61.5105 58.9055 59.3505 75.2477 52.7123C75.7027 52.5275 76 52.0889 76 51.6022V8.40031C76 7.91354 75.7028 7.47495 75.2477 7.29018C63.569 2.5465 51.2665 0.0944681 38.6824 0.00266791C25.6533 -0.0925106 12.8915 2.35938 0.752281 7.29018ZM8.89363 6.90153C10.2355 6.47543 11.5833 6.08047 12.9362 5.71444L12.9362 20.2029C11.5701 20.3266 10.2181 20.4607 8.89363 20.6053L8.89363 6.90153ZM2.42547 50.7939L2.42547 9.2086C3.76571 8.67703 5.11367 8.17778 6.46802 7.7082L6.46802 52.2933C5.10967 51.8231 3.76141 51.3234 2.42547 50.7939ZM12.9362 22.6128V37.2127C11.5805 37.0956 10.2293 36.9703 8.89363 36.8386V23.0207C10.2171 22.8744 11.5682 22.738 12.9362 22.6128ZM8.89363 53.0961L8.89363 39.2508C10.2299 39.3815 11.5815 39.5053 12.9362 39.6217L12.9362 54.2822C11.5812 53.9166 10.2331 53.5206 8.89363 53.0961ZM17.7873 55.4566C16.9771 55.2824 16.1684 55.0975 15.3618 54.9022L15.3618 5.09122C16.1689 4.89528 16.9772 4.70874 17.7873 4.53396L17.7873 55.4566ZM67.1064 53.093C65.7661 53.5171 64.4188 53.9142 63.0638 54.2788V39.7997C64.4296 39.676 65.7816 39.5419 67.1064 39.3974V53.093ZM73.5745 9.20859L73.5745 50.7939C72.237 51.3241 70.8886 51.8215 69.532 52.2905L69.532 38.0591C69.532 38.0531 69.532 22.0804 69.532 22.0804C69.532 22.0742 69.532 7.7082 69.532 7.7082C70.8863 8.17778 72.2343 8.67703 73.5745 9.20859ZM63.0638 37.39V22.7901C64.42 22.9073 65.7713 23.0326 67.1064 23.1642V36.9822C65.7825 37.1281 64.4315 37.2647 63.0638 37.39ZM67.1064 6.90153V20.752C65.7706 20.6213 64.4189 20.4974 63.0638 20.3811L63.0638 5.71444C64.4167 6.08046 65.7646 6.47528 67.1064 6.90153ZM60.6384 5.09122V21.4986C60.6384 21.502 60.6384 21.5053 60.6384 21.5086V38.6815C60.6384 38.6872 60.6384 54.8948 60.6384 54.8948C59.8317 55.0896 59.0235 55.2751 58.2129 55.4491L58.2129 4.5341C59.0229 4.70889 59.8313 4.89513 60.6384 5.09122ZM55.7873 4.04381V19.8363C50.7223 19.5136 45.6597 19.3096 40.7186 19.2324C40.0489 19.2219 39.4974 19.7506 39.4869 20.4134C39.4868 20.4199 39.4868 20.4262 39.4868 20.4327C39.4868 21.0866 40.0171 21.622 40.6805 21.6322C45.6331 21.7097 50.7094 21.9156 55.7874 22.2417V37.939C44.5431 38.6157 32.5878 38.5556 20.2129 37.7602V22.0629C25.2627 21.7593 30.515 21.6013 35.8497 21.596C36.5192 21.5954 37.0611 21.0582 37.0611 20.396C37.0605 19.732 36.517 19.1952 35.8471 19.1959C30.5162 19.2011 25.2651 19.3578 20.2126 19.6582V4.04352C31.9815 1.81841 44.0185 1.81841 55.7873 4.04381Z" fill="black"/>
<path d="M20.2058 57.0115C20.2022 57.0631 20.2163 56.9594 20.2058 57.0115V57.0115Z" fill="black"/>
<path d="M47.2978 47.1335C47.2978 46.4707 46.7549 45.9334 46.0851 45.9334C45.4153 45.9334 44.8724 46.4707 44.8724 47.1335C44.8724 47.7962 45.4153 48.3335 46.0851 48.3335C46.7549 48.3335 47.2978 47.7962 47.2978 47.1335Z" fill="black"/>
<path d="M52.1489 51.9337C52.1489 51.2709 51.606 50.7337 50.9362 50.7337C50.2664 50.7337 49.7234 51.2709 49.7234 51.9337C49.7234 52.5965 50.2664 53.1337 50.9362 53.1337C51.606 53.1337 52.1489 52.5965 52.1489 51.9337Z" fill="black"/>
<path d="M26.2766 8.06791C26.2766 7.40516 25.7336 6.86789 25.0638 6.86789C24.394 6.86789 23.8511 7.40516 23.8511 8.06791C23.8511 8.73066 24.394 9.26793 25.0638 9.26793C25.7336 9.26793 26.2766 8.73066 26.2766 8.06791Z" fill="black"/>
<path d="M54 33.4C54.0004 30.6028 53.2286 27.857 51.7655 25.4508C50.3024 23.0446 48.202 21.0668 45.6848 19.7248C45.1738 19.4508 44.7478 19.0479 44.4514 18.5582C44.155 18.0686 43.9991 17.5103 44 16.9417V10H32V16.9417C32.0009 17.5103 31.845 18.0686 31.5486 18.5583C31.2522 19.0479 30.8261 19.4508 30.3152 19.7248C27.7979 21.0668 25.6976 23.0446 24.2345 25.4508C22.7714 27.857 21.9996 30.6028 22 33.4C22 33.6595 22.0065 33.9175 22.0194 34.1738C22.4098 41.9638 28.6636 44.3448 36.5682 45.0294C37.5203 45.1235 38.4797 45.1235 39.4318 45.0294C47.406 44.3389 53.7004 41.8525 53.9896 33.9673C53.9965 33.7789 54 33.5898 54 33.4Z" fill="#E6E6E6"/>
<path d="M49.0162 34.1896L47.8732 34.952C47.0142 35.4682 46.025 35.7416 45.016 35.7416C44.0069 35.7416 43.0177 35.4682 42.1588 34.952L41.0158 34.1896C40.1569 33.6733 39.1677 33.4 38.1587 33.4C37.1497 33.4 36.1605 33.6733 35.3016 34.1896L34.1586 34.952C33.2996 35.4682 32.3104 35.7416 31.3013 35.7416C30.2922 35.7416 29.303 35.4682 28.444 34.952L27.3012 34.1896C26.5117 33.7233 25.6135 33.4606 24.6911 33.4263C23.7687 33.392 22.8526 33.5872 22.029 33.9936C22.1753 37.7811 23.7322 41.3869 26.4083 44.1361C29.0845 46.8852 32.6964 48.5893 36.5682 48.9294C37.5203 49.0235 38.4797 49.0235 39.4318 48.9294C43.328 48.5874 46.9604 46.8643 49.6411 44.0864C52.3218 41.3085 53.8647 37.6685 53.9776 33.8559C53.183 33.5228 52.3183 33.3794 51.4555 33.4374C50.5926 33.4954 49.7564 33.7533 49.0162 34.1896Z" fill="#AA0003"/>
<path d="M30 37.3C32.2091 37.3 34 35.5539 34 33.4C34 31.2461 32.2091 29.5 30 29.5C27.7909 29.5 26 31.2461 26 33.4C26 35.5539 27.7909 37.3 30 37.3Z" fill="#AA0003"/>
<path d="M43 31.45C44.6569 31.45 46 30.1404 46 28.525C46 26.9096 44.6569 25.6 43 25.6C41.3431 25.6 40 26.9096 40 28.525C40 30.1404 41.3431 31.45 43 31.45Z" fill="#AA0003"/>
<path d="M36 23.65C37.1046 23.65 38 22.777 38 21.7C38 20.623 37.1046 19.75 36 19.75C34.8954 19.75 34 20.623 34 21.7C34 22.777 34.8954 23.65 36 23.65Z" fill="#AA0003"/>
<path d="M40 43.15C41.1046 43.15 42 42.277 42 41.2C42 40.123 41.1046 39.25 40 39.25C38.8954 39.25 38 40.123 38 41.2C38 42.277 38.8954 43.15 40 43.15Z" fill="#E6E6E6"/>
<path d="M44 13.9H32C31.4696 13.9 30.9608 13.6946 30.5858 13.3289C30.2107 12.9632 30 12.4672 30 11.95C30 11.4328 30.2107 10.9368 30.5858 10.5711C30.9608 10.2054 31.4696 10 32 10H44C44.5304 10 45.0391 10.2054 45.4142 10.5711C45.7893 10.9368 46 11.4328 46 11.95C46 12.4672 45.7893 12.9632 45.4142 13.3289C45.0391 13.6946 44.5304 13.9 44 13.9Z" fill="#E6E6E6"/>
</svg>
